<?xml version="1.0" standalone="no"?>
<svg xmlns:xlink="http://www.w3.org/1999/xlink" id="wave" style="transform:rotate(180deg); transition: 0.3s" viewBox="0 0 1440 100" version="1.1" xmlns="http://www.w3.org/2000/svg"><defs><linearGradient id="sw-gradient-0" x1="0" x2="0" y1="1" y2="0"><stop stop-color="rgba(247, 246, 242, 1)" offset="0%"/><stop stop-color="rgba(247, 246, 242, 1)" offset="100%"/></linearGradient></defs><path style="transform:translate(0, 0px); opacity:1" fill="url(#sw-gradient-0)" d="M0,20L26.7,30C53.3,40,107,60,160,60C213.3,60,267,40,320,26.7C373.3,13,427,7,480,8.3C533.3,10,587,20,640,21.7C693.3,23,747,17,800,15C853.3,13,907,17,960,18.3C1013.3,20,1067,20,1120,30C1173.3,40,1227,60,1280,66.7C1333.3,73,1387,67,1440,56.7C1493.3,47,1547,33,1600,36.7C1653.3,40,1707,60,1760,65C1813.3,70,1867,60,1920,61.7C1973.3,63,2027,77,2080,78.3C2133.3,80,2187,70,2240,61.7C2293.3,53,2347,47,2400,43.3C2453.3,40,2507,40,2560,48.3C2613.3,57,2667,73,2720,80C2773.3,87,2827,83,2880,83.3C2933.3,83,2987,87,3040,83.3C3093.3,80,3147,70,3200,66.7C3253.3,63,3307,67,3360,63.3C3413.3,60,3467,50,3520,51.7C3573.3,53,3627,67,3680,71.7C3733.3,77,3787,73,3813,71.7L3840,70L3840,100L3813.3,100C3786.7,100,3733,100,3680,100C3626.7,100,3573,100,3520,100C3466.7,100,3413,100,3360,100C3306.7,100,3253,100,3200,100C3146.7,100,3093,100,3040,100C2986.7,100,2933,100,2880,100C2826.7,100,2773,100,2720,100C2666.7,100,2613,100,2560,100C2506.7,100,2453,100,2400,100C2346.7,100,2293,100,2240,100C2186.7,100,2133,100,2080,100C2026.7,100,1973,100,1920,100C1866.7,100,1813,100,1760,100C1706.7,100,1653,100,1600,100C1546.7,100,1493,100,1440,100C1386.7,100,1333,100,1280,100C1226.7,100,1173,100,1120,100C1066.7,100,1013,100,960,100C906.7,100,853,100,800,100C746.7,100,693,100,640,100C586.7,100,533,100,480,100C426.7,100,373,100,320,100C266.7,100,213,100,160,100C106.7,100,53,100,27,100L0,100Z"/></svg>